<?xml version="1.0" standalone="no"?>
<!DOCTYPE svg PUBLIC "-//W3C//DTD SVG 20010904//EN"
 "http://www.w3.org/TR/2001/REC-SVG-20010904/DTD/svg10.dtd">
<svg version="1.0" xmlns="http://www.w3.org/2000/svg"
 width="512.000000pt" height="512.000000pt" viewBox="0 0 512.000000 512.000000"
 preserveAspectRatio="xMidYMid meet">
<metadata>
Created by potrace 1.14, written by Peter Selinger 2001-2017
</metadata>
<g transform="translate(0.000000,512.000000) scale(0.100000,-0.100000)"
fill="#000000" stroke="none">
<path d="M2395 4719 c-287 -37 -557 -171 -770 -384 -427 -425 -517 -1079 -222
-1608 44 -77 3 -24 621 -827 378 -491 486 -625 513 -636 68 -29 60 -37 579
636 263 343 505 657 537 699 102 135 191 336 233 532 26 117 26 399 0 517 -58
271 -180 497 -371 687 -295 296 -705 436 -1120 384z m300 -594 c203 -43 369
-184 449 -383 29 -73 31 -85 31 -212 0 -116 -3 -144 -24 -203 -29 -87 -107
-203 -174 -262 -103 -91 -272 -154 -413 -155 -130 0 -297 65 -401 155 -65 57
-144 173 -173 256 -31 89 -39 259 -15 349 33 129 108 249 203 326 148 121 335
167 517 129z"/>
<path d="M1246 1708 c-58 -91 -616 -1032 -616 -1039 0 -5 841 -9 1940 -9 1093
0 1940 4 1940 9 0 4 -141 244 -313 532 l-313 524 -401 3 -402 2 -54 -69 -55
-70 13 -63 c7 -35 15 -78 19 -95 l6 -33 -94 0 -93 0 -32 -45 -32 -44 133 -3
133 -3 17 -85 c9 -47 19 -97 22 -112 l6 -28 -231 0 -231 0 7 50 7 50 -51 0
-51 0 0 -50 0 -50 -225 0 c-173 0 -225 3 -225 13 0 6 11 57 23 112 l22 100
133 3 133 3 -32 44 -32 45 -89 0 c-101 0 -97 -5 -73 95 8 33 15 67 15 76 0 10
-25 49 -56 88 l-55 71 -399 0 -400 0 -14 -22z m388 -100 c-3 -12 -24 -63 -44
-112 l-38 -91 -186 -3 c-102 -1 -186 0 -186 4 0 6 66 121 107 187 l23 37 166
0 165 0 -7 -22z m441 -35 c-7 -32 -18 -84 -25 -115 l-11 -58 -190 0 c-118 0
-189 4 -189 10 0 10 64 170 81 203 9 15 28 17 178 17 l169 0 -13 -57z m1370
-50 c22 -58 42 -110 43 -115 2 -4 -84 -8 -192 -8 -180 0 -196 1 -196 18 -1 9
-9 61 -19 115 l-18 97 171 0 171 0 40 -107z m452 -3 c35 -58 63 -108 63 -112
0 -5 -83 -8 -184 -8 l-183 0 -42 108 c-22 59 -41 111 -41 115 0 4 73 6 162 5
l162 -3 63 -105z m-2390 -222 c-3 -7 -24 -59 -47 -115 l-43 -103 -218 0 -219
0 56 93 c31 50 62 102 70 115 14 22 18 22 210 22 153 0 195 -3 191 -12z m509
-5 c-3 -10 -14 -60 -26 -112 -11 -52 -21 -96 -23 -98 -2 -2 -103 -2 -225 -1
l-220 3 46 113 46 112 204 0 c189 0 203 -1 198 -17z m1511 5 c10 -13 83 -198
83 -211 0 -4 -100 -7 -223 -7 l-224 0 -20 110 c-11 61 -17 112 -15 115 3 3 92
5 197 5 142 0 195 -3 202 -12z m339 2 l161 0 67 -111 c36 -61 66 -112 66 -115
0 -6 -402 -5 -425 2 -19 5 -33 36 -101 218 -7 17 -4 19 32 13 21 -4 112 -7
200 -7z m-2502 -347 c-9 -21 -30 -73 -46 -115 l-31 -78 -249 0 c-137 0 -247 3
-245 8 57 95 122 200 129 210 8 9 67 12 234 12 l224 0 -16 -37z m578 31 c5 -4
-13 -100 -37 -201 l-5 -23 -256 0 c-210 0 -255 2 -251 13 3 8 24 59 47 115
l42 102 228 0 c124 0 229 -3 232 -6z m480 -4 l98 0 0 -110 0 -110 -260 0
c-143 0 -260 4 -260 8 0 11 39 194 46 211 4 12 29 13 141 8 75 -4 180 -7 235
-7z m668 -12 c1 -7 9 -57 19 -110 l18 -98 -258 0 -259 0 0 110 0 110 240 0
c185 0 240 -3 240 -12z m606 -98 l42 -110 -258 0 -257 0 -7 38 c-3 20 -12 70
-20 110 l-14 72 237 0 236 0 41 -110z m575 23 c29 -49 59 -98 67 -111 l15 -22
-258 2 -257 3 -39 100 c-21 55 -39 103 -39 108 0 4 103 7 229 7 l230 0 52 -87z"/>
</g>
</svg>
